<?xml version="1.0" encoding="UTF-8" standalone="no"?>
<!-- Created with Inkscape (http://www.inkscape.org/) -->

<svg
   xmlns:dc="http://purl.org/dc/elements/1.1/"
   xmlns:cc="http://creativecommons.org/ns#"
   xmlns:rdf="http://www.w3.org/1999/02/22-rdf-syntax-ns#"
   xmlns:svg="http://www.w3.org/2000/svg"
   xmlns="http://www.w3.org/2000/svg"
   xmlns:sodipodi="http://sodipodi.sourceforge.net/DTD/sodipodi-0.dtd"
   xmlns:inkscape="http://www.inkscape.org/namespaces/inkscape"
   width="136.35736mm"
   height="126.11098mm"
   viewBox="0 0 136.35736 126.11098"
   version="1.1"
   id="svg8"
   inkscape:version="0.92.3 (unknown)"
   sodipodi:docname="hangman.svg">
  <defs
     id="defs2">
    <inkscape:path-effect
       effect="bspline"
       id="path-effect878"
       is_visible="true"
       weight="33.333333"
       steps="2"
       helper_size="0"
       apply_no_weight="true"
       apply_with_weight="true"
       only_selected="false" />
    <inkscape:path-effect
       effect="simplify"
       id="path-effect876"
       is_visible="true"
       steps="1"
       threshold="0.000408163"
       smooth_angles="360"
       helper_size="0"
       simplify_individual_paths="false"
       simplify_just_coalesce="false"
       simplifyindividualpaths="false"
       simplifyJustCoalesce="false" />
    <inkscape:path-effect
       effect="bspline"
       id="path-effect872"
       is_visible="true"
       weight="33.333333"
       steps="2"
       helper_size="0"
       apply_no_weight="true"
       apply_with_weight="true"
       only_selected="false" />
    <inkscape:path-effect
       effect="simplify"
       id="path-effect870"
       is_visible="true"
       steps="1"
       threshold="0.000408163"
       smooth_angles="360"
       helper_size="0"
       simplify_individual_paths="false"
       simplify_just_coalesce="false"
       simplifyindividualpaths="false"
       simplifyJustCoalesce="false" />
    <inkscape:path-effect
       effect="bspline"
       id="path-effect866"
       is_visible="true"
       weight="33.333333"
       steps="2"
       helper_size="0"
       apply_no_weight="true"
       apply_with_weight="true"
       only_selected="false" />
    <inkscape:path-effect
       effect="simplify"
       id="path-effect864"
       is_visible="true"
       steps="1"
       threshold="0.000408163"
       smooth_angles="360"
       helper_size="0"
       simplify_individual_paths="false"
       simplify_just_coalesce="false"
       simplifyindividualpaths="false"
       simplifyJustCoalesce="false" />
    <inkscape:path-effect
       effect="bspline"
       id="path-effect860"
       is_visible="true"
       weight="33.333333"
       steps="2"
       helper_size="0"
       apply_no_weight="true"
       apply_with_weight="true"
       only_selected="false" />
    <inkscape:path-effect
       effect="simplify"
       id="path-effect858"
       is_visible="true"
       steps="1"
       threshold="0.000408163"
       smooth_angles="360"
       helper_size="0"
       simplify_individual_paths="false"
       simplify_just_coalesce="false"
       simplifyindividualpaths="false"
       simplifyJustCoalesce="false" />
    <inkscape:path-effect
       effect="bspline"
       id="path-effect1815"
       is_visible="true"
       weight="33.333333"
       steps="2"
       helper_size="0"
       apply_no_weight="true"
       apply_with_weight="true"
       only_selected="false" />
    <inkscape:path-effect
       effect="simplify"
       id="path-effect1813"
       is_visible="true"
       steps="1"
       threshold="0.00478261"
       smooth_angles="360"
       helper_size="0"
       simplify_individual_paths="false"
       simplify_just_coalesce="false"
       simplifyindividualpaths="false"
       simplifyJustCoalesce="false" />
    <inkscape:path-effect
       effect="bspline"
       id="path-effect1803"
       is_visible="true"
       weight="33.333333"
       steps="2"
       helper_size="0"
       apply_no_weight="true"
       apply_with_weight="true"
       only_selected="false" />
    <inkscape:path-effect
       effect="simplify"
       id="path-effect1801"
       is_visible="true"
       steps="1"
       threshold="0.00478261"
       smooth_angles="360"
       helper_size="0"
       simplify_individual_paths="false"
       simplify_just_coalesce="false"
       simplifyindividualpaths="false"
       simplifyJustCoalesce="false" />
    <inkscape:path-effect
       effect="bspline"
       id="path-effect1797"
       is_visible="true"
       weight="33.333333"
       steps="2"
       helper_size="0"
       apply_no_weight="true"
       apply_with_weight="true"
       only_selected="false" />
    <inkscape:path-effect
       effect="simplify"
       id="path-effect1795"
       is_visible="true"
       steps="1"
       threshold="0.00478261"
       smooth_angles="360"
       helper_size="0"
       simplify_individual_paths="false"
       simplify_just_coalesce="false"
       simplifyindividualpaths="false"
       simplifyJustCoalesce="false" />
    <inkscape:path-effect
       effect="bspline"
       id="path-effect1791"
       is_visible="true"
       weight="33.333333"
       steps="2"
       helper_size="0"
       apply_no_weight="true"
       apply_with_weight="true"
       only_selected="false" />
    <inkscape:path-effect
       effect="simplify"
       id="path-effect1789"
       is_visible="true"
       steps="1"
       threshold="0.00478261"
       smooth_angles="360"
       helper_size="0"
       simplify_individual_paths="false"
       simplify_just_coalesce="false"
       simplifyindividualpaths="false"
       simplifyJustCoalesce="false" />
    <inkscape:path-effect
       effect="simplify"
       id="path-effect1433"
       is_visible="true"
       steps="1"
       threshold="0.00478261"
       smooth_angles="360"
       helper_size="0"
       simplify_individual_paths="false"
       simplify_just_coalesce="false"
       simplifyindividualpaths="false"
       simplifyJustCoalesce="false" />
    <inkscape:path-effect
       effect="simplify"
       id="path-effect1361"
       is_visible="true"
       steps="1"
       threshold="0.00478261"
       smooth_angles="360"
       helper_size="0"
       simplify_individual_paths="false"
       simplify_just_coalesce="false"
       simplifyindividualpaths="false"
       simplifyJustCoalesce="false" />
    <inkscape:path-effect
       effect="simplify"
       id="path-effect1329"
       is_visible="true"
       steps="1"
       threshold="0.00478261"
       smooth_angles="360"
       helper_size="0"
       simplify_individual_paths="false"
       simplify_just_coalesce="false"
       simplifyindividualpaths="false"
       simplifyJustCoalesce="false" />
    <inkscape:path-effect
       effect="simplify"
       id="path-effect897"
       is_visible="true"
       steps="1"
       threshold="0.00478261"
       smooth_angles="360"
       helper_size="0"
       simplify_individual_paths="false"
       simplify_just_coalesce="false"
       simplifyindividualpaths="false"
       simplifyJustCoalesce="false" />
  </defs>
  <sodipodi:namedview
     id="base"
     pagecolor="#ffffff"
     bordercolor="#666666"
     borderopacity="1.0"
     inkscape:pageopacity="0.0"
     inkscape:pageshadow="2"
     inkscape:zoom="0.85039061"
     inkscape:cx="394.82542"
     inkscape:cy="134.10881"
     inkscape:document-units="mm"
     inkscape:current-layer="layer1"
     showgrid="false"
     inkscape:window-width="1301"
     inkscape:window-height="744"
     inkscape:window-x="65"
     inkscape:window-y="24"
     inkscape:window-maximized="1"
     fit-margin-top="0"
     fit-margin-left="0"
     fit-margin-right="0"
     fit-margin-bottom="0"
     showguides="false" />
  <metadata
     id="metadata5">
    <rdf:RDF>
      <cc:Work
         rdf:about="">
        <dc:format>image/svg+xml</dc:format>
        <dc:type
           rdf:resource="http://purl.org/dc/dcmitype/StillImage" />
        <dc:title />
      </cc:Work>
    </rdf:RDF>
  </metadata>
  <g
     inkscape:label="Layer 1"
     inkscape:groupmode="layer"
     id="layer1"
     transform="translate(113.34785,2.0724927)">
    <g
       aria-label="Hangman"
       transform="matrix(0.78917357,0,0,1.07941,-81.05622,348.73595)"
       style="font-style:normal;font-variant:normal;font-weight:normal;font-stretch:normal;font-size:40px;line-height:1.25;font-family:mali;-inkscape-font-specification:mali;letter-spacing:0px;word-spacing:0px;fill:#000000;fill-opacity:1;stroke:none"
       id="flowRoot1746">
      <path
         d="m -18.518281,-232.20692 q 1.8,0 1.8,1.44 0,1.4 -1.8,1.4 h -0.64 l 0.28,9.72 q 0.04,0.68 -0.36,1.12 -0.4,0.4 -1.12,0.4 -0.76,0 -1.16,-0.36 -0.4,-0.4 -0.44,-1.08 l -0.28,-9.88 -13.2,-0.2 -0.84,10.6 q -0.12,1.12 -1.52,1.12 -1.68,0 -1.56,-1.36 l 0.84,-10.44 h -0.76 q -0.68,0 -1.16,-0.36 -0.48,-0.36 -0.48,-1.04 0,-0.68 0.48,-1.04 0.48,-0.36 1.24,-0.36 h 0.92 l 1.04,-13.12 q 0.04,-0.72 0.48,-1.04 0.48,-0.36 1.12,-0.36 0.8,0 1.16,0.48 0.36,0.44 0.32,1.12 l -1.04,13 12.88,0.2 -0.4,-13.28 q 0,-0.72 0.4,-1.12 0.4,-0.4 1.12,-0.4 0.72,0 1.12,0.4 0.44,0.4 0.44,1 l 0.4,13.44 z"
         id="path1754"
         inkscape:connector-curvature="0" />
      <path
         d="m 6.7173438,-220.76692 q 0.5599999,0.08 0.84,0.32 0.28,0.24 0.28,0.88 0,0.6 -0.32,0.96 -0.28,0.36 -0.8,0.36 -1.64,0 -2.4400001,-0.52 -0.7599999,-0.52 -1.32,-1.96 -1.7999999,2.92 -6.3999999,2.92 -3.24,0 -5.2400001,-1.44 -1.9999997,-1.44 -2.8799997,-3.64 -0.84,-2.24 -0.84,-4.72 0,-2.68 1.08,-5.04 1.08,-2.36 3.1599997,-3.8 2.1200001,-1.44 5.04,-1.44 2.0000001,0 3.48000005,0.8 1.48000005,0.8 2.31999995,2.24 l 0.16,-1.32 q 0.08,-1.48 1.3600001,-1.48 0.7999999,0 1.2,0.4 0.44,0.36 0.36,0.88 l -0.1200001,1 q -0.28,1.68 -0.3999999,3.48 -0.1200001,1.52 -0.1200001,4.08 v 2.76 q 0,1.72 0.08,2.56 0.1199999,0.8 0.4399999,1.24 0.32,0.44 1.0800002,0.48 z m -4.64,-4.32 q 0.04,-1.88 0.04,-4.84 0,-1.96 -0.84,-3.16 -0.83999995,-1.24 -2.03999995,-1.76 -1.20000005,-0.52 -2.28000005,-0.52 -2.1199999,0 -3.5599999,1.2 -1.4,1.2 -2.0800001,3 -0.64,1.8 -0.64,3.56 0,2.8 1.3600001,5.04 1.4,2.2 4.56,2.2 2.36,0 3.87999995,-1.2 1.55999995,-1.24 1.59999995,-3.52 z"
         id="path1756"
         inkscape:connector-curvature="0" />
      <path
         d="m 22.919219,-238.52692 q 6.76,0 6.76,9.56 v 9.36 q 0,1.4 -1.48,1.4 -1.6,0 -1.6,-1.36 v -9.44 q 0,-3.52 -0.8,-5.16 -0.8,-1.68 -2.88,-1.68 -2.2,0 -3.6,1.68 -1.4,1.68 -1.96,4.4 -0.36,1.84 -0.36,4.52 l 0.04,5.92 q 0,0.56 -0.4,0.88 -0.4,0.28 -1.08,0.28 -0.76,0 -1.16,-0.32 -0.4,-0.32 -0.4,-0.84 0,-3.56 -0.16,-8.68 -0.12,-2.96 -0.12,-5.24 0,-1 -0.24,-1.56 -0.2,-0.6 -0.84,-1.64 -0.16,-0.24 -0.16,-0.56 0,-0.48 0.52,-0.88 0.56,-0.44 1.08,-0.44 0.52,0 1.08,0.76 0.44,0.64 0.8,1.56 0.4,0.88 0.4,1.68 v 0.44 q 0.72,-2 2.32,-3.32 1.6,-1.32 4.24,-1.32 z"
         id="path1758"
         inkscape:connector-curvature="0" />
      <path
         d="m 53.346719,-222.88692 q 0.28,1.72 0.4,2.64 0.12,0.92 0.12,1.92 0,3.04 -1.2,5.32 -1.2,2.32 -3.4,3.56 -2.2,1.28 -5.08,1.28 -2.12,0 -3.96,-0.92 -1.84,-0.88 -2.96,-2.4 -1.08,-1.48 -1.08,-3.24 0,-1.2 1.48,-1.2 0.48,0 0.72,0.2 0.28,0.24 0.4,0.76 0.48,2.12 1.88,3.16 1.44,1.04 3.52,1.04 3.2,0 4.92,-2 1.72,-2 1.72,-5.56 0,-1.16 -0.32,-3 -0.92,1.36 -2.6,2.2 -1.64,0.8 -3.88,0.8 -2.96,0 -5.2,-1.36 -2.24,-1.36 -3.44,-3.6 -1.16,-2.24 -1.16,-4.84 0,-2.68 1.16,-5.04 1.16,-2.36 3.28,-3.8 2.16,-1.44 4.96,-1.44 1.8,0 3.16,0.52 1.4,0.52 2.16,1.28 0.64,-1.84 0.76,-2.08 0.36,-0.68 1.04,-0.68 0.6,0 1.12,0.32 0.56,0.32 0.6,0.8 0,0.24 -0.04,0.36 -0.04,0.16 -0.28,0.88 -0.2,0.72 -0.56,2.12 l 1.44,9.88 z m -9.36,1.72 q 1.28,0 2.6,-0.52 1.32,-0.56 2.28,-1.36 0.96,-0.84 1.16,-1.64 -0.2,-1.92 -0.96,-6.4 l -0.36,-2.08 q -0.2,-0.52 -0.92,-1.08 -0.72,-0.6 -1.8,-1 -1.08,-0.4 -2.28,-0.4 -1.88,0 -3.36,1 -1.44,0.96 -2.28,2.64 -0.8,1.68 -0.8,3.76 0,1.88 0.72,3.52 0.76,1.6 2.28,2.6 1.52,0.96 3.72,0.96 z"
         id="path1760"
         inkscape:connector-curvature="0" />
      <path
         d="m 77.989844,-238.60692 q 3.56,0 5,2.36 1.44,2.36 1.44,6.6 0,6.72 -0.04,10.2 0,0.56 -0.4,0.92 -0.36,0.36 -1.04,0.36 -0.72,0 -1.12,-0.36 -0.36,-0.36 -0.36,-1 v -9.88 q 0,-3.6 -0.8,-5.2 -0.76,-1.6 -2.88,-1.6 -2,0 -2.96,2.24 -0.96,2.24 -1,5.28 v 3.08 6.08 q 0,1.28 -1.48,1.28 -1.56,0 -1.56,-1.36 l 0.04,-7.24 v -1.84 q -0.04,-2.84 -1.16,-5.08 -1.08,-2.28 -3,-2.28 -1.48,0 -2.48,1.48 -0.96,1.44 -1.6,4.64 -0.36,1.92 -0.36,5.56 v 2.64 2.32 q 0,0.56 -0.44,0.88 -0.44,0.28 -1.04,0.28 -0.68,-0.04 -1.08,-0.32 -0.36,-0.32 -0.36,-0.88 0,-4.04 -0.08,-12.92 v -1.52 q -0.04,-1 -0.24,-1.44 -0.2,-0.44 -0.56,-0.8 -0.08,-0.08 -0.28,-0.24 -0.16,-0.16 -0.16,-0.4 0,-0.6 0.44,-1 0.44,-0.4 1,-0.4 0.28,0 0.64,0.32 0.4,0.28 0.68,0.68 0.44,0.6 0.6,1.2 0.2,0.6 0.2,1.44 v 0.68 q 0.68,-2.28 2.04,-3.44 1.36,-1.2 3.24,-1.2 4.12,0 5.4,4.64 0.6,-2.32 2.08,-3.52 1.48,-1.24 3.68,-1.24 z"
         id="path1762"
         inkscape:connector-curvature="0" />
      <path
         d="m 108.90484,-220.76692 q 0.56,0.08 0.84,0.32 0.28,0.24 0.28,0.88 0,0.6 -0.32,0.96 -0.28,0.36 -0.8,0.36 -1.64,0 -2.44,-0.52 -0.76,-0.52 -1.32,-1.96 -1.8,2.92 -6.399996,2.92 -3.24,0 -5.24,-1.44 -2,-1.44 -2.88,-3.64 -0.84,-2.24 -0.84,-4.72 0,-2.68 1.08,-5.04 1.08,-2.36 3.16,-3.8 2.12,-1.44 5.04,-1.44 1.999996,0 3.479996,0.8 1.48,0.8 2.32,2.24 l 0.16,-1.32 q 0.08,-1.48 1.36,-1.48 0.8,0 1.2,0.4 0.44,0.36 0.36,0.88 l -0.12,1 q -0.28,1.68 -0.4,3.48 -0.12,1.52 -0.12,4.08 v 2.76 q 0,1.72 0.08,2.56 0.12,0.8 0.44,1.24 0.32,0.44 1.08,0.48 z m -4.64,-4.32 q 0.04,-1.88 0.04,-4.84 0,-1.96 -0.84,-3.16 -0.84,-1.24 -2.04,-1.76 -1.2,-0.52 -2.279996,-0.52 -2.12,0 -3.56,1.2 -1.4,1.2 -2.08,3 -0.64,1.8 -0.64,3.56 0,2.8 1.36,5.04 1.4,2.2 4.56,2.2 2.359996,0 3.879996,-1.2 1.56,-1.24 1.6,-3.52 z"
         id="path1764"
         inkscape:connector-curvature="0" />
      <path
         d="m 125.10672,-238.52692 q 6.76,0 6.76,9.56 v 9.36 q 0,1.4 -1.48,1.4 -1.6,0 -1.6,-1.36 v -9.44 q 0,-3.52 -0.8,-5.16 -0.8,-1.68 -2.88,-1.68 -2.2,0 -3.6,1.68 -1.4,1.68 -1.96,4.4 -0.36,1.84 -0.36,4.52 l 0.04,5.92 q 0,0.56 -0.4,0.88 -0.4,0.28 -1.08,0.28 -0.76,0 -1.16,-0.32 -0.4,-0.32 -0.4,-0.84 0,-3.56 -0.16,-8.68 -0.12,-2.96 -0.12,-5.24 0,-1 -0.24,-1.56 -0.2,-0.6 -0.84,-1.64 -0.16,-0.24 -0.16,-0.56 0,-0.48 0.52,-0.88 0.56,-0.44 1.08,-0.44 0.52,0 1.08,0.76 0.44,0.64 0.8,1.56 0.4,0.88 0.4,1.68 v 0.44 q 0.72,-2 2.32,-3.32 1.6,-1.32 4.24,-1.32 z"
         id="path1766"
         inkscape:connector-curvature="0" />
    </g>
    <path
       style="fill:none;stroke:#000000;stroke-width:0.26458332px;stroke-linecap:butt;stroke-linejoin:miter;stroke-opacity:1"
       d="m -65.589161,14.312765 c -0.362986,-2.903894 0.546004,-7.5787037 1.699022,-9.6489959 1.153018,-2.0702922 3.278659,-3.69578287 5.327154,-4.2312741 2.048494,-0.53549123 5.993771,-0.53549123 7.44358,0.6053243 1.449808,1.1408155 3.179761,3.859313 3.663022,6.4410638 0.48326,2.5817509 0.227805,6.6690139 -0.733428,8.8775129 -0.961234,2.208499 -3.405916,4.796986 -5.554166,5.213966 -2.148251,0.41698 -6.489475,-0.0031 -8.259862,-1.141316 -1.770387,-1.138177 -3.222335,-3.212387 -3.585322,-6.116281 z"
       id="path856"
       inkscape:connector-curvature="0"
       inkscape:path-effect="#path-effect858;#path-effect860"
       inkscape:original-d="m -66.678121,15.142449 2.177921,-11.2007353 5.289236,-4.04470993 h 8.08942 l 4.355842,6.84489363 -0.622264,9.9562086 -5.289236,5.600368 -9.645077,-0.933395 z" />
    <path
       style="fill:none;stroke:#000000;stroke-width:0.26458332px;stroke-linecap:butt;stroke-linejoin:miter;stroke-opacity:1"
       d="m -55.788516,21.365079 c -0.311132,13.689788 -0.729994,32.119728 -2.905905,38.305769 -2.175911,6.186041 -6.324331,9.608487 -10.472752,13.030934"
       id="path862"
       inkscape:connector-curvature="0"
       inkscape:path-effect="#path-effect864;#path-effect866"
       inkscape:original-d="m -55.788516,21.365079 -0.933395,41.069363 -12.445262,10.26734" />
    <path
       style="fill:none;stroke:#000000;stroke-width:0.26458332px;stroke-linecap:butt;stroke-linejoin:miter;stroke-opacity:1"
       d="m -57.966439,57.456336 c 3.629868,4.666973 7.259736,9.333946 10.889604,14.000919"
       id="path868"
       inkscape:connector-curvature="0"
       inkscape:path-effect="#path-effect870;#path-effect872"
       inkscape:original-d="m -57.966439,57.456336 10.889604,14.000919" />
    <path
       style="fill:none;stroke:#000000;stroke-width:0.26458332px;stroke-linecap:butt;stroke-linejoin:miter;stroke-opacity:1"
       d="m -45.832308,46.877865 c -3.629868,-2.177921 -9.998277,-5.998967 -10.496159,-6.214308 -0.497882,-0.215341 -0.606203,-0.107356 -2.574783,1.031546 -1.96858,1.138902 -5.80512,3.316397 -9.64166,5.493893"
       id="path874"
       inkscape:connector-curvature="0"
       inkscape:path-effect="#path-effect876;#path-effect878"
       inkscape:original-d="m -45.832308,46.877865 -10.889603,-6.533763 -0.311131,0.311131 -11.511868,6.533763" />
  </g>
</svg>
